<svg width="17" height="18" viewBox="0 0 17 18" fill="none" xmlns="http://www.w3.org/2000/svg">
<path d="M0.293041 15.293L6.58604 9L0.293041 2.707C0.110883 2.5184 0.0100885 2.2658 0.0123669 2.0036C0.0146453 1.74141 0.119815 1.49059 0.305223 1.30519C0.490631 1.11978 0.741443 1.01461 1.00364 1.01233C1.26584 1.01005 1.51844 1.11085 1.70704 1.29301L8.00004 7.58601L14.293 1.29301C14.3853 1.19749 14.4956 1.12131 14.6176 1.0689C14.7396 1.01649 14.8709 0.988908 15.0036 0.987754C15.1364 0.986601 15.2681 1.0119 15.391 1.06218C15.5139 1.11246 15.6255 1.18672 15.7194 1.28061C15.8133 1.3745 15.8876 1.48615 15.9379 1.60905C15.9881 1.73195 16.0134 1.86363 16.0123 1.99641C16.0111 2.12919 15.9836 2.26041 15.9311 2.38241C15.8787 2.50441 15.8026 2.61476 15.707 2.707L9.41404 9L15.707 15.293C15.8026 15.3853 15.8787 15.4956 15.9311 15.6176C15.9836 15.7396 16.0111 15.8708 16.0123 16.0036C16.0134 16.1364 15.9881 16.2681 15.9379 16.391C15.8876 16.5139 15.8133 16.6255 15.7194 16.7194C15.6255 16.8133 15.5139 16.8875 15.391 16.9378C15.2681 16.9881 15.1364 17.0134 15.0036 17.0123C14.8709 17.0111 14.7396 16.9835 14.6176 16.9311C14.4956 16.8787 14.3853 16.8025 14.293 16.707L8.00004 10.414L1.70704 16.707C1.51844 16.8892 1.26584 16.99 1.00364 16.9877C0.741443 16.9854 0.490631 16.8802 0.305223 16.6948C0.119815 16.5094 0.0146453 16.2586 0.0123669 15.9964C0.0100885 15.7342 0.110883 15.4816 0.293041 15.293Z" fill="#526EFF"/>
</svg>
